<svg width="80" height="56" viewBox="0 0 80 56" fill="none" xmlns="http://www.w3.org/2000/svg">
<ellipse cx="33.617" cy="47.8359" rx="1.2766" ry="1.28906" fill="#070707"/>
<ellipse cx="33.617" cy="51.2734" rx="1.2766" ry="1.28906" fill="#070707"/>
<ellipse cx="33.617" cy="54.7109" rx="1.2766" ry="1.28906" fill="#070707"/>
<path d="M0 45.436V35.6265H6.26492V37.3192H2.00212V39.95H5.89367V41.5747H2.00212V45.436H0ZM8.79343 45.436V35.6265H10.7956V45.436H8.79343ZM16.1151 45.436V37.3192H13.2444V35.6265H20.9878V37.3192H18.1172V45.436H16.1151ZM26.8576 45.6875C24.5704 45.6875 23.1252 44.5658 23.0125 42.8256L23.0059 42.7168H24.9351L24.9416 42.7848C25.0146 43.519 25.7902 44.0152 26.9107 44.0152C27.978 44.0152 28.7139 43.4918 28.7139 42.7372V42.7304C28.7139 42.0846 28.2432 41.7243 27.0565 41.4728L26.0488 41.262C24.0599 40.8474 23.2048 39.8956 23.2048 38.4069V38.4001C23.2048 36.5782 24.7295 35.375 26.8509 35.375C29.0851 35.375 30.3978 36.585 30.5237 38.2233L30.5304 38.3117H28.6476L28.6343 38.2301C28.5216 37.53 27.8587 37.0405 26.8509 37.0405C25.8632 37.0473 25.2068 37.5096 25.2068 38.2437V38.2505C25.2068 38.8895 25.671 39.2702 26.798 39.5082L27.8122 39.7189C29.8342 40.1472 30.716 40.9765 30.716 42.5061V42.5129C30.716 44.4571 29.2443 45.6875 26.8576 45.6875ZM32.3404 45.436V35.6265H37.2355C39.2509 35.6265 40.5967 36.9589 40.5967 38.9779V38.9915C40.5967 41.0105 39.2509 42.3429 37.2355 42.3429H34.4681V45.436H32.3404ZM36.745 37.2512H34.4681V40.7386H36.745C37.8918 40.7386 38.5681 40.1132 38.5681 38.9983V38.9847C38.5681 37.8699 37.8918 37.2512 36.745 37.2512ZM43.1186 45.436V35.6265H45.1207V39.6101H49.4299V35.6265H51.432V45.436H49.4299V41.3028H45.1207V45.436H43.1186ZM54.4312 45.436V35.6265H60.7691V37.3192H56.4333V39.6849H60.5238V41.262H56.4333V43.7433H60.7691V45.436H54.4312ZM63.5561 45.436V35.6265H67.5404C69.715 35.6265 70.9614 36.8162 70.9614 38.7468V38.7604C70.9614 40.018 70.3249 41.0989 69.231 41.5407L71.2464 45.436H68.9791L67.1957 41.8467H65.5583V45.436H63.5561ZM65.5583 40.3511H67.3217C68.3227 40.3511 68.9128 39.7665 68.9128 38.8012V38.7876C68.9128 37.8427 68.2962 37.2308 67.2952 37.2308H65.5583V40.3511ZM73.6622 45.436V35.6265H80V37.3192H75.6643V39.6849H79.7547V41.262H75.6643V43.7433H80V45.436H73.6622Z" fill="#070707"/>
<path d="M6 28.5L7.5 23.5L8.70387 20.8515C9.56612 18.9545 10.6013 17.141 11.7962 15.434V15.434C12.9299 13.8144 14.203 12.297 15.6008 10.8992L16.0199 10.4801C17.3375 9.16254 18.7676 7.96268 20.294 6.89418V6.89418C22.0932 5.63474 24.0174 4.56399 26.036 3.69886L27.1423 3.22474C29.0414 2.41084 31.0261 1.81343 33.059 1.44382V1.44382C34.683 1.14854 36.3304 1 37.981 1H40.0058C42.3288 1 44.6452 1.24541 46.9166 1.73213V1.73213C49.2982 2.24247 51.6159 3.01505 53.8274 4.03573V4.03573C55.9366 5.00919 57.9644 6.22331 59.8228 7.61709V7.61709C61.9132 9.18492 63.845 11.0139 65.5178 13.0213L65.7707 13.3249C67.2534 15.104 68.5585 17.0239 69.6675 19.057V19.057C70.5545 20.6832 71.3129 22.3762 71.9359 24.1206L73.5 28.5" stroke="black"/>
<path d="M14 29L15.1556 25.1818L16.0802 23.1655C16.7463 21.7128 17.5454 20.3249 18.4672 19.0195V19.0195C19.3393 17.7846 20.3177 16.6284 21.3913 15.5642L21.7142 15.2441C22.7324 14.2348 23.8368 13.3163 25.0147 12.499V12.499C26.3988 11.5385 27.8777 10.7226 29.4283 10.0639L30.2837 9.70044C31.7492 9.07786 33.2798 8.6211 34.8468 8.33867V8.33867C36.0971 8.11334 37.3649 8 38.6353 8H40.2002C41.9878 8 43.7748 8.18818 45.5233 8.55958V8.55958C47.3534 8.94833 49.1399 9.53819 50.8413 10.3166V10.3166C52.4685 11.061 54.0289 11.9865 55.465 13.0542V13.0542C57.0782 14.2535 58.5645 15.6499 59.8581 17.1887L60.0503 17.4173C61.1893 18.7722 62.1927 20.2355 63.046 21.7863V21.7863C63.7303 23.0299 64.3158 24.3253 64.7969 25.6607L66 29" stroke="black"/>
</svg>
