<svg width="80" height="56" viewBox="0 0 80 56" fill="none" xmlns="http://www.w3.org/2000/svg">
<ellipse cx="33.6169" cy="47.8359" rx="1.2766" ry="1.28906" fill="white"/>
<ellipse cx="33.6169" cy="51.2734" rx="1.2766" ry="1.28906" fill="white"/>
<ellipse cx="33.6169" cy="54.7109" rx="1.2766" ry="1.28906" fill="white"/>
<path d="M74.4195 36C74.4195 16.67 59.0903 0.999999 40.1807 0.999999C21.2711 0.999999 5.94189 16.67 5.94189 36" stroke="url(#paint0_linear_201_272)"/>
<path d="M67.3424 37C67.3424 20.9837 55.1493 8 40.1083 8C25.0674 8 12.8743 20.9837 12.8743 37" stroke="url(#paint1_linear_201_272)"/>
<path d="M0 45.436V35.6265H6.26492V37.3192H2.00212V39.95H5.89367V41.5747H2.00212V45.436H0ZM8.79343 45.436V35.6265H10.7956V45.436H8.79343ZM16.1151 45.436V37.3192H13.2444V35.6265H20.9878V37.3192H18.1172V45.436H16.1151ZM26.8576 45.6875C24.5704 45.6875 23.1252 44.5658 23.0125 42.8256L23.0059 42.7168H24.9351L24.9416 42.7848C25.0146 43.519 25.7902 44.0152 26.9107 44.0152C27.978 44.0152 28.7139 43.4918 28.7139 42.7372V42.7304C28.7139 42.0846 28.2432 41.7243 27.0565 41.4728L26.0488 41.262C24.0599 40.8474 23.2048 39.8956 23.2048 38.4069V38.4001C23.2048 36.5782 24.7295 35.375 26.8509 35.375C29.0851 35.375 30.3978 36.585 30.5237 38.2233L30.5304 38.3117H28.6476L28.6343 38.2301C28.5216 37.53 27.8587 37.0405 26.8509 37.0405C25.8632 37.0473 25.2068 37.5096 25.2068 38.2437V38.2505C25.2068 38.8895 25.671 39.2702 26.798 39.5082L27.8122 39.7189C29.8342 40.1472 30.716 40.9765 30.716 42.5061V42.5129C30.716 44.4571 29.2443 45.6875 26.8576 45.6875ZM32.3404 45.436V35.6265H37.2355C39.2509 35.6265 40.5967 36.9589 40.5967 38.9779V38.9915C40.5967 41.0105 39.2509 42.3429 37.2355 42.3429H34.4681V45.436H32.3404ZM36.745 37.2512H34.4681V40.7386H36.745C37.8918 40.7386 38.5681 40.1132 38.5681 38.9983V38.9847C38.5681 37.8699 37.8918 37.2512 36.745 37.2512ZM43.1186 45.436V35.6265H45.1207V39.6101H49.4299V35.6265H51.432V45.436H49.4299V41.3028H45.1207V45.436H43.1186ZM54.4312 45.436V35.6265H60.7691V37.3192H56.4333V39.6849H60.5238V41.262H56.4333V43.7433H60.7691V45.436H54.4312ZM63.5561 45.436V35.6265H67.5404C69.715 35.6265 70.9614 36.8162 70.9614 38.7468V38.7604C70.9614 40.018 70.3249 41.0989 69.231 41.5407L71.2464 45.436H68.9791L67.1957 41.8467H65.5583V45.436H63.5561ZM65.5583 40.3511H67.3217C68.3227 40.3511 68.9128 39.7665 68.9128 38.8012V38.7876C68.9128 37.8427 68.2962 37.2308 67.2952 37.2308H65.5583V40.3511ZM73.6622 45.436V35.6265H80V37.3192H75.6643V39.6849H79.7547V41.262H75.6643V43.7433H80V45.436H73.6622Z" fill="white"/>
<defs>
<linearGradient id="paint0_linear_201_272" x1="40.1807" y1="1" x2="40.1807" y2="36" gradientUnits="userSpaceOnUse">
<stop offset="0.7849" stop-color="white"/>
<stop offset="0.785" stop-color="#576C7E"/>
</linearGradient>
<linearGradient id="paint1_linear_201_272" x1="40.1083" y1="8" x2="40.1083" y2="37" gradientUnits="userSpaceOnUse">
<stop offset="0.6449" stop-color="white"/>
<stop offset="0.645" stop-color="#576C7E"/>
</linearGradient>
</defs>
</svg>
